{"title":"Alyce 2011 DVDrip English Klam","uid":6805045,"size":928415806,"categoryP":"video","categoryS":"movies","magnet":"?xt=urn:btih:a1e721e4d273d4cdc1571a70db737487176f5fe6&amp;dn=Alyce+2011+DVDrip+English+Klam&amp;tr=udp%3A%2F%2Ftracker.openbittorrent.com%3A80&amp;tr=udp%3A%2F%2Fopen.demonii.com%3A1337&amp;tr=udp%3A%2F%2Ftracker.coppersurfer.tk%3A6969&amp;tr=udp%3A%2F%2Fexodus.desync.com%3A6969","seeders":0,"leechers":0,"uploader":"Klambake","files":-1,"time":1320832420,"description":"With: Jade Dornfeld, Tamara Feldman and James Duval\n\nNadat ze per ongeluk haar beste vriend van het dak heeft gegooid, wordt Alyce (Jade Dornfeld) achtervolgd door schuldgevoelens. Ze komt terecht in een neerwaartse spiraal van seks, drugs en geweld waarbij haar geest zich uiteen rukt, gelijk met een ieder ander die in haar weg staat.\n\nAfter she accidentally her best friend has thrown off the roof, is Alyce (Jade Dornfeld) haunted by guilt...\n\n------------------ Dutch Friends ------------------\nYou can find my Friends at: http://www.Film-Test.nl \n------ They got my dutch subs ----- and more ------\n\nGeneral:\n\nComplete name                    : Alyce\\Alyce.avi\nFormat                           : AVI\nFormat/Info                      : Audio Video Interleave\nFile size                        : 885 MiB\nDuration                         : 1h 29mn\nOverall bit rate                 : 1 376 Kbps\n\nVideo:\n\nFormat                           : MPEG-4 Visual\nFormat profile                   : Simple@L3\nFormat settings, BVOP            : No\nFormat settings, QPel            : No\nFormat settings, GMC             : No warppoints\nFormat settings, Matrix          : Default (H.263)\nCodec ID                         : XVID\nCodec ID/Hint                    : XviD\nDuration                         : 1h 29mn\nBit rate                         : 917 Kbps\nWidth                            : 704 pixels\nHeight                           : 396 pixels\nDisplay aspect ratio             : 16:9\nFrame rate                       : 25.000 fps\nColor space                      : YUV\nChroma subsampling               : 4:2:0\nBit depth                        : 8 bits\nScan type                        : Progressive\nCompression mode                 : Lossy\nBits/(Pixel*Frame)               : 0.132\nStream size                      : 590 MiB (67%)\nWriting library                  : XviD 1.1.2 (UTC 2006-11-01)\n\nAudio:\n\nFormat                           : AC-3\nFormat/Info                      : Audio Coding 3\nMode extension                   : CM (complete main)\nCodec ID                         : 2000\nDuration                         : 1h 29mn\nBit rate mode                    : Constant\nBit rate                         : 448 Kbps\nChannel(s)                       : 6 channels\nChannel positions                : Front: L C R, Side: L R, LFE\nSampling rate                    : 48.0 KHz\nBit depth                        : 16 bits\nCompression mode                 : Lossy\nStream size                      : 288 MiB (33%)\nAlignment                        : Aligned on interleaves\nInterleave, duration             : 32 ms (0.80 video frame)\nInterleave, preload duration     : 416 ms\n","torrent":{"xt":"urn:btih:a1e721e4d273d4cdc1571a70db737487176f5fe6","amp;dn":"Alyce+2011+DVDrip+English+Klam","amp;tr":["udp%3A%2F%2Ftracker.openbittorrent.com%3A80","udp%3A%2F%2Fopen.demonii.com%3A1337","udp%3A%2F%2Ftracker.coppersurfer.tk%3A6969","udp%3A%2F%2Fexodus.desync.com%3A6969"],"infoHash":"a1e721e4d273d4cdc1571a70db737487176f5fe6","infoHashBuffer":{"type":"Buffer","data":[161,231,33,228,210,115,212,205,193,87,26,112,219,115,116,135,23,111,95,230]},"announce":[],"urlList":[]}}